<svg id="visual" viewBox="0 0 1728 1117" width="1728" height="1117" xmlns="http://www.w3.org/2000/svg" xmlns:xlink="http://www.w3.org/1999/xlink" version="1.1"><rect x="0" y="0" width="1728" height="1117" fill="#F5EEFF"></rect><path d="M920 1117L932.3 1086C944.7 1055 969.3 993 976.5 931C983.7 869 973.3 807 962.8 745C952.3 683 941.7 621 961.8 558.8C982 496.7 1033 434.3 1043 372.2C1053 310 1022 248 1013.3 186C1004.7 124 1018.3 62 1025.2 31L1032 0L1728 0L1728 31C1728 62 1728 124 1728 186C1728 248 1728 310 1728 372.2C1728 434.3 1728 496.7 1728 558.8C1728 621 1728 683 1728 745C1728 807 1728 869 1728 931C1728 993 1728 1055 1728 1086L1728 1117Z" fill="#D3BEFF" stroke-linecap="round" stroke-linejoin="miter"></path></svg>