<svg id="visual" viewBox="0 0 900 600" width="900" height="600" xmlns="http://www.w3.org/2000/svg" xmlns:xlink="http://www.w3.org/1999/xlink" version="1.1"><path d="M0 400L21.5 399.2C43 398.3 86 396.7 128.8 396.5C171.7 396.3 214.3 397.7 257.2 394.3C300 391 343 383 385.8 389.8C428.7 396.7 471.3 418.3 514.2 417.7C557 417 600 394 642.8 390.5C685.7 387 728.3 403 771.2 413.5C814 424 857 429 878.5 431.5L900 434L900 601L878.5 601C857 601 814 601 771.2 601C728.3 601 685.7 601 642.8 601C600 601 557 601 514.2 601C471.3 601 428.7 601 385.8 601C343 601 300 601 257.2 601C214.3 601 171.7 601 128.8 601C86 601 43 601 21.5 601L0 601Z" fill="#f5eeff"></path><path d="M0 466L21.5 466.5C43 467 86 468 128.8 467.3C171.7 466.7 214.3 464.3 257.2 465.7C300 467 343 472 385.8 466.7C428.7 461.3 471.3 445.7 514.2 435.2C557 424.7 600 419.3 642.8 423.2C685.7 427 728.3 440 771.2 449.3C814 458.7 857 464.3 878.5 467.2L900 470L900 601L878.5 601C857 601 814 601 771.2 601C728.3 601 685.7 601 642.8 601C600 601 557 601 514.2 601C471.3 601 428.7 601 385.8 601C343 601 300 601 257.2 601C214.3 601 171.7 601 128.8 601C86 601 43 601 21.5 601L0 601Z" fill="#ede2ff"></path><path d="M0 440L21.5 445.8C43 451.7 86 463.3 128.8 463C171.7 462.7 214.3 450.3 257.2 454.3C300 458.3 343 478.7 385.8 488.8C428.7 499 471.3 499 514.2 496.7C557 494.3 600 489.7 642.8 482.2C685.7 474.7 728.3 464.3 771.2 462.2C814 460 857 466 878.5 469L900 472L900 601L878.5 601C857 601 814 601 771.2 601C728.3 601 685.7 601 642.8 601C600 601 557 601 514.2 601C471.3 601 428.7 601 385.8 601C343 601 300 601 257.2 601C214.3 601 171.7 601 128.8 601C86 601 43 601 21.5 601L0 601Z" fill="#e5d6ff"></path><path d="M0 495L21.5 494.2C43 493.3 86 491.7 128.8 497.3C171.7 503 214.3 516 257.2 515.7C300 515.3 343 501.7 385.8 493.7C428.7 485.7 471.3 483.3 514.2 487.3C557 491.3 600 501.7 642.8 502.3C685.7 503 728.3 494 771.2 488.8C814 483.7 857 482.3 878.5 481.7L900 481L900 601L878.5 601C857 601 814 601 771.2 601C728.3 601 685.7 601 642.8 601C600 601 557 601 514.2 601C471.3 601 428.7 601 385.8 601C343 601 300 601 257.2 601C214.3 601 171.7 601 128.8 601C86 601 43 601 21.5 601L0 601Z" fill="#dccaff"></path><path d="M0 566L21.5 564C43 562 86 558 128.8 558.8C171.7 559.7 214.3 565.3 257.2 560.5C300 555.7 343 540.3 385.8 536.7C428.7 533 471.3 541 514.2 545.3C557 549.7 600 550.3 642.8 549.7C685.7 549 728.3 547 771.2 546.7C814 546.3 857 547.7 878.5 548.3L900 549L900 601L878.5 601C857 601 814 601 771.2 601C728.3 601 685.7 601 642.8 601C600 601 557 601 514.2 601C471.3 601 428.7 601 385.8 601C343 601 300 601 257.2 601C214.3 601 171.7 601 128.8 601C86 601 43 601 21.5 601L0 601Z" fill="#d3beff"></path></svg>