<svg xmlns="http://www.w3.org/2000/svg" version="1.1" xmlns:xlink="http://www.w3.org/1999/xlink" xmlns:svgjs="http://svgjs.dev/svgjs" viewBox="0 0 800 800" opacity="1"><defs><filter id="nnneon-filter" x="-100%" y="-100%" width="400%" height="400%" filterUnits="objectBoundingBox" primitiveUnits="userSpaceOnUse" color-interpolation-filters="sRGB">
	<feGaussianBlur stdDeviation="65 65" x="0%" y="0%" width="100%" height="100%" in="SourceGraphic" edgeMode="none" result="blur"></feGaussianBlur></filter><filter id="nnneon-filter2" x="-100%" y="-100%" width="400%" height="400%" filterUnits="objectBoundingBox" primitiveUnits="userSpaceOnUse" color-interpolation-filters="sRGB">
	<feGaussianBlur stdDeviation="16 18" x="0%" y="0%" width="100%" height="100%" in="SourceGraphic" edgeMode="none" result="blur"></feGaussianBlur></filter></defs><g stroke-width="41" stroke="#f68b1e" fill="none" transform="rotate(335, 400, 400)"><path d="M376.5084355706738 87.027140718216C386.13256358322303 67.57969250113686 413.867455366664 67.57969250113686 423.4915833792131 87.027140718216L721.7478185219296 689.725052754634C730.368122724891 707.1438857533818 717.6932090351611 727.5584644815259 698.2588655675546 727.5584644815259H101.74115338233236C82.30680991472559 727.5584644815259 69.6318962249959 707.1438857533818 78.25220042795723 689.725052754634L376.5084355706738 87.027140718216Z " filter="url(#nnneon-filter)"></path><path d="M376.5084355706738 87.027140718216C386.13256358322303 67.57969250113686 413.867455366664 67.57969250113686 423.4915833792131 87.027140718216L721.7478185219296 689.725052754634C730.368122724891 707.1438857533818 717.6932090351611 727.5584644815259 698.2588655675546 727.5584644815259H101.74115338233236C82.30680991472559 727.5584644815259 69.6318962249959 707.1438857533818 78.25220042795723 689.725052754634L376.5084355706738 87.027140718216Z " filter="url(#nnneon-filter2)" opacity="0.88"></path><path d="M376.5084355706738 87.027140718216C386.13256358322303 67.57969250113686 413.867455366664 67.57969250113686 423.4915833792131 87.027140718216L721.7478185219296 689.725052754634C730.368122724891 707.1438857533818 717.6932090351611 727.5584644815259 698.2588655675546 727.5584644815259H101.74115338233236C82.30680991472559 727.5584644815259 69.6318962249959 707.1438857533818 78.25220042795723 689.725052754634L376.5084355706738 87.027140718216Z " filter="url(#nnneon-filter2)" opacity="0.88"></path><path d="M376.5084355706738 87.027140718216C386.13256358322303 67.57969250113686 413.867455366664 67.57969250113686 423.4915833792131 87.027140718216L721.7478185219296 689.725052754634C730.368122724891 707.1438857533818 717.6932090351611 727.5584644815259 698.2588655675546 727.5584644815259H101.74115338233236C82.30680991472559 727.5584644815259 69.6318962249959 707.1438857533818 78.25220042795723 689.725052754634L376.5084355706738 87.027140718216Z "></path></g></svg>