<svg version="1.1" xmlns="http://www.w3.org/2000/svg" xmlns:xlink="http://www.w3.org/1999/xlink" width="1560" height="804"><defs/><g><path fill="none" stroke="#02063B" paint-order="fill stroke markers" d=" M 20 408.4391877977365 L 21 408.75981078795127 L 22 409.0802383857939 L 23 409.4004613293028 L 24 409.72047036243174 L 25 410.04025623531777 L 26 410.3598097045482 L 27 410.67912153342803 L 28 410.998182492247 L 29 411.31698335854605 L 30 411.6355149173842 L 31 411.9537679616049 L 32 412.2717332921019 L 33 412.5894017180853 L 34 412.9067640573474 L 35 413.22381113652784 L 36 413.54053379137883 L 37 413.85692286703016 L 38 414.17296921825357 L 39 414.4886637097274 L 40 414.80399721630044 L 41 415.1189606232558 L 42 415.4335448265742 L 43 415.74774073319736 L 44 416.0615392612907 L 45 416.37493134050584 L 46 416.6879079122428 L 47 417.00045992991187 L 48 417.3125783591951 L 49 417.6242541783073 L 50 417.9354783782571 L 51 418.2462419631071 L 52 418.5565359502339 L 53 418.866351370588 L 54 419.17567926895276 L 55 419.48451070420333 L 56 419.79283674956525 L 57 420.10064849287227 L 58 420.40793703682414 L 59 420.7146934992435 L 60 421.020909013333 L 61 421.3265747279313 L 62 421.63168180776916 L 63 421.9362214337244 L 64 422.24018480307745 L 65 422.5435631297651 L 66 422.8463476446351 L 67 423.14852959569913 L 68 423.45010024838604 L 69 423.7510508857943 L 70 424.05137280894394 L 71 424.35105733702784 L 72 424.650095807663 L 73 424.94847957714046 L 74 425.24620002067564 L 75 425.5432485326573 L 76 425.83961652689635 L 77 426.1352954368741 L 78 426.4302767159899 L 79 426.72455183780806 L 80 427.01811229630437 L 81 427.310949606112 L 82 427.6030553027667 L 83 427.8944209429515 L 84 428.1850381047409 L 85 428.47489838784395 L 86 428.76399341384746 L 87 429.0523148264579 L 88 429.33985429174317 L 89 429.62660349837313 L 90 429.9125541578603 L 91 430.19769800479907 L 92 430.4820267971049 L 93 430.7655323162522 L 94 431.04820636751225 L 95 431.33004078018985 L 96 431.61102740785964 L 97 431.89115812860143 L 98 432.17042484523495 L 99 432.4488194855541 L 100 432.7263340025601 L 101 433.00296037469417 L 102 433.2786906060693 L 103 433.55351672670145 L 104 433.82743079273996 L 105 434.10042488669706 L 106 434.37249111767676 L 107 434.6436216216031 L 108 434.91380856144707 L 109 435.1830441274536 L 110 435.4513205373671 L 111 435.7186300366562 L 112 435.9849648987381 L 113 436.2503174252022 L 114 436.5146799460319 L 115 436.7780448198271 L 116 437.0404044340243 L 117 437.30175120511745 L 118 437.5620775788765 L 119 437.8213760305659 L 120 438.07963906516244 L 121 438.33685921757154 L 122 438.593029052843 L 123 438.8481411663863 L 124 439.10218818418423 L 125 439.3551627630061 L 126 439.60705759062023 L 127 439.857865386005 L 128 440.1075788995597 L 129 440.35619091331364 L 130 440.603694241135 L 131 440.85008172893856 L 132 441.09534625489255 L 133 441.3394807296243 L 134 441.58247809642535 L 135 441.82433133145537 L 136 442.0650334439451 L 137 442.30457747639844 L 138 442.5429565047937 L 139 442.7801636387837 L 140 443.01619202189465 L 141 443.25103483172484 L 142 443.48468528014126 L 143 443.7171366134764 L 144 443.948382112723 L 145 444.1784150937284 L 146 444.40722890738806 L 147 444.6348169398372 L 148 444.86117261264235 L 149 445.0862893829914 L 150 445.31016074388276 L 151 445.5327802243134 L 152 445.7541413894658 L 153 445.9742378408942 L 154 446.1930632167093 L 155 446.4106111917622 L 156 446.6268754778275 L 157 446.8418498237846 L 158 447.05552801579876 L 159 447.2679038775005 L 160 447.4789712701642 L 161 447.68872409288565 L 162 447.89715628275826 L 163 448.10426181504823 L 164 448.31003470336896 L 165 448.51446899985376 L 166 448.71755879532816 L 167 448.9192982194803 L 168 449.1196814410309 L 169 449.31870266790173 L 170 449.516356147383 L 171 449.7126361662997 L 172 449.9075370511767 L 173 450.1010531684027 L 174 450.29317892439315 L 175 450.4839087657519 L 176 450.67323717943174 L 177 450.8611586928937 L 178 451.0476678742653 L 179 451.2327593324975 L 180 451.41642771752055 L 181 451.59866772039874 L 182 451.7794740734836 L 183 451.9588415505664 L 184 452.1367649670291 L 185 452.3132391799943 L 186 452.4882590884738 L 187 452.6618196335161 L 188 452.83391579835245 L 189 453.0045426085423 L 190 453.1736951321166 L 191 453.3413684797207 L 192 453.5075578047554 L 193 453.67225830351714 L 194 453.8354652153372 L 195 453.99717382271865 L 196 454.1573794514733 L 197 454.3160774708563 L 198 454.4732632937007 L 199 454.62893237654913 L 200 454.7830802197859 L 201 454.93570236776657 L 202 455.0867944089471 L 203 455.23635197601106 L 204 455.38437074599614 L 205 455.5308464404188 L 206 455.6757748253982 L 207 455.8191517117786 L 208 455.9609729552501 L 209 456.1012344564689 L 210 456.2399321611753 L 211 456.3770620603114 L 212 456.51262019013666 L 213 456.6466026323425 L 214 456.7790055141655 L 215 456.90982500849964 L 216 457.0390573340066 L 217 457.1666987552253 L 218 457.29274558267963 L 219 457.41719417298526 L 220 457.5400409289549 L 221 457.6612822997024 L 222 457.78091478074515 L 223 457.89893491410555 L 224 458.0153392884109 L 225 458.13012453899216 L 226 458.2432873479808 L 227 458.35482444440527 L 228 458.4647326042851 L 229 458.5730086507242 L 230 458.6796494540028 L 231 458.7846519316678 L 232 458.88801304862204 L 233 458.98972981721175 L 234 459.08979929731305 L 235 459.18821859641713 L 236 459.28498486971347 L 237 459.38009532017236 L 238 459.4735471986256 L 239 459.5653378038462 L 240 459.65546448262603 L 241 459.743924629853 L 242 459.8307156885859 L 243 459.9158351501287 L 244 459.9992805541029 L 245 460.0810494885185 L 246 460.16113958984397 L 247 460.23954854307453 L 248 460.3162740817988 L 249 460.3913139882646 L 250 460.46466609344304 L 251 460.5363282770911 L 252 460.6062984678129 L 253 460.67457464311957 L 254 460.741154829488 L 255 460.8060371024173 L 256 460.86921958648514 L 257 460.93070045540134 L 258 460.9904779320611 L 259 461.04855028859595 L 260 461.1049158464242 L 261 461.159572976299 L 262 461.2125200983557 L 263 461.26375568215735 L 264 461.31327824673923 L 265 461.36108636065114 L 266 461.4071786419994 L 267 461.45155375848617 L 268 461.4942104274486 L 269 461.5351474158954 L 270 461.5743635405425 L 271 461.61185766784774 L 272 461.6476287140431 L 273 461.6816756451663 L 274 461.7139974770905 L 275 461.74459327555303 L 276 461.7734621561822 L 277 461.80060328452265 L 278 461.82601587606007 L 279 461.84969919624325 L 280 461.87165256050577 L 281 461.89187533428543 L 282 461.91036693304284 L 283 461.9271268222782 L 284 461.9421545175469 L 285 461.95544958447323 L 286 461.9670116387632 L 287 461.9768403462156 L 288 461.9849354227316 L 289 461.9912966343229 L 290 461.99592379711873 L 291 461.99881677737085 L 292 461.9999754914576 L 293 461.99939990588643 L 294 461.99709003729464 L 295 461.993045952449 L 296 461.9872677682437 L 297 461.97975565169736 L 298 461.9705098199476 L 299 461.95953054024534 L 300 461.9468181299467 L 301 461.93237295650397 L 302 461.916195437455 L 303 461.898286040411 L 304 461.8786452830433 L 305 461.8572737330681 L 306 461.8341720082301 L 307 461.80934077628484 L 308 461.7827807549793 L 309 461.7544927120309 L 310 461.7244774651059 L 311 461.69273588179504 L 312 461.65926887958904 L 313 461.6240774258518 L 314 461.58716253779244 L 315 461.5485252824361 L 316 461.50816677659293 L 317 461.4660881868257 L 318 461.42229072941626 L 319 461.3767756703305 L 320 461.3295443251814 L 321 461.28059805919133 L 322 461.22993828715244 L 323 461.1775664733856 L 324 461.12348413169855 L 325 461.0676928253417 L 326 461.010194166963 L 327 460.9509898185616 L 328 460.8900814914395 L 329 460.82747094615235 L 330 460.76315999245827 L 331 460.6971504892658 L 332 460.62944434458007 L 333 460.56004351544755 L 334 460.4889500078996 L 335 460.4161658768946 L 336 460.34169322625814 L 337 460.2655342086228 L 338 460.1876910253654 L 339 460.10816592654356 L 340 460.02696121083085 L 341 459.94407922544997 L 342 459.8595223661053 L 343 459.7732930769134 L 344 459.6853938503322 L 345 459.59582722708967 L 346 459.50459579610936 L 347 459.4117021944365 L 348 459.3171491071611 L 349 459.2209392673408 L 350 459.1230754559216 L 351 459.02356050165747 L 352 458.9223972810289 L 353 458.81958871815937 L 354 458.715137784731 L 355 458.6090474998986 L 356 458.5013209302026 L 357 458.3919611894801 L 358 458.2809714387751 L 359 458.168354886247 L 360 458.05411478707794 L 361 457.9382544433787 L 362 457.82077720409313 L 363 457.70168646490174 L 364 457.5809856681229 L 365 457.458678302614 L 366 457.33476790367007 L 367 457.209258052922 L 368 457.0821523782328 L 369 456.9534545535928 L 370 456.8231682990134 L 371 456.6912973804195 L 372 456.5578456095409 L 373 456.4228168438018 L 374 456.2862149862096 L 375 456.14804398524166 L 376 456.00830783473174 L 377 455.86701057375404 L 378 455.7241562865068 L 379 455.57974910219406 L 380 455.43379319490634 L 381 455.28629278350013 L 382 455.1372521314756 L 383 454.9866755468537 L 384 454.8345673820516 L 385 454.68093203375673 L 386 454.52577394279973 L 387 454.36909759402624 L 388 454.21090751616697 L 389 454.05120828170715 L 390 453.8900045067541 L 391 453.727300850904 L 392 453.56310201710687 L 393 453.39741275153114 L 394 453.230237843426 L 395 453.06158212498315 L 396 452.89145047119723 L 397 452.7198477997246 L 398 452.5467790707417 L 399 452.37224928680115 L 400 452.1962634926873 L 401 452.0188267752707 L 402 451.83994426336085 L 403 451.6596211275576 L 404 451.4778625801025 L 405 451.29467387472744 L 406 451.110060306503 L 407 450.9240272116855 L 408 450.73657996756276 L 409 450.5477239922984 L 410 450.3574647447757 L 411 450.1658077244392 L 412 449.9727584711364 L 413 449.77832256495697 L 414 449.58250562607213 L 415 449.3853133145716 L 416 449.18675133030035 L 417 448.98682541269386 L 418 448.7855413406118 L 419 448.5829049321717 L 420 448.37892204458 L 421 448.1735985739635 L 422 447.96694045519826 L 423 447.7589536617385 L 424 447.54964420544366 L 425 447.339018136405 L 426 447.12708154277027 L 427 446.91384055056795 L 428 446.6993013235303 L 429 446.48347006291493 L 430 446.2663530073258 L 431 446.0479564325327 L 432 445.82828665128994 L 433 445.6073500131539 L 434 445.3851529042995 L 435 445.1617017473354 L 436 444.93700300111885 L 437 444.7110631605683 L 438 444.48388875647635 L 439 444.25548635532044 L 440 444.02586255907346 L 441 443.7950240050126 L 442 443.5629773655276 L 443 443.3297293479281 L 444 443.09528669424947 L 445 442.85965618105797 L 446 442.62284461925503 L 447 442.38485885388036 L 448 442.14570576391395 L 449 441.90539226207727 L 450 441.66392529463366 L 451 441.42131184118716 L 452 441.17755891448115 L 453 440.93267356019555 L 454 440.68666285674294 L 455 440.4395339150642 L 456 440.191293878423 L 457 439.941949922199 L 458 439.69150925368086 L 459 439.43997911185755 L 460 439.1873667672094 L 461 438.9336795214978 L 462 438.67892470755413 L 463 438.4231096890678 L 464 438.1662418603735 L 465 437.9083286462374 L 466 437.6493775016425 L 467 437.3893959115733 L 468 437.1283913907991 L 469 436.8663714836573 L 470 436.60334376383486 L 471 436.3393158341496 L 472 436.0742953263305 L 473 435.808289900797 L 474 435.5413072464374 L 475 435.2733550803871 L 476 435.0044411478049 L 477 434.73457322164995 L 478 434.46375910245604 L 479 434.19200661810714 L 480 433.9193236236103 L 481 433.64571800086924 L 482 433.37119765845614 L 483 433.09577053138315 L 484 432.8194445808731 L 485 432.54222779412925 L 486 432.26412818410455 L 487 431.9851537892698 L 488 431.7053126733818 L 489 431.4246129252495 L 490 431.143062658501 L 491 430.8606700113483 L 492 430.5774431463528 L 493 430.2933902501886 L 494 430.00851953340646 L 495 429.7228392301962 L 496 429.43635759814873 L 497 429.1490829180173 L 498 428.8610234934784 L 499 428.5721876508914 L 500 428.2825837390581 L 501 427.99222012898133 L 502 427.701105213623 L 503 427.4092474076616 L 504 427.11665514724865 L 505 426.82333688976536 L 506 426.5293011135777 L 507 426.23455631779154 L 508 425.93911102200707 L 509 425.6429737660723 L 510 425.3461531098365 L 511 425.04865763290246 L 512 424.7504959343788 L 513 424.4516766326313 L 514 424.1522083650336 L 515 423.8520997877178 L 516 423.5513595753243 L 517 423.2499964207506 L 518 422.94801903490065 L 519 422.6454361464326 L 520 422.34225650150665 L 521 422.03848886353234 L 522 421.734142012915 L 523 421.42922474680233 L 524 421.1237458788297 L 525 420.81771423886573 L 526 420.5111386727567 L 527 420.20402804207134 L 528 419.8963912238443 L 529 419.5882371103196 L 530 419.2795746086939 L 531 418.97041264085857 L 532 418.6607601431422 L 533 418.35062606605226 L 534 418.04001937401597 L 535 417.7289490451218 L 536 417.41742407085934 L 537 417.10545345586 L 538 416.79304621763634 L 539 416.4802113863214 L 540 416.16695800440795 L 541 415.85329512648684 L 542 415.5392318189855 L 543 415.2247771599058 L 544 414.9099402385615 L 545 414.5947301553158 L 546 414.27915602131804 L 547 413.9632269582405 L 548 413.6469520980147 L 549 413.33034058256743 L 550 413.0134015635564 L 551 412.69614420210587 L 552 412.37857766854194 L 553 412.0607111421271 L 554 411.7425538107953 L 555 411.42411487088606 L 556 411.10540352687894 L 557 410.7864289911273 L 558 410.467200483592 L 559 410.14772723157506 L 560 409.82801846945273 L 561 409.50808343840873 L 562 409.18793138616707 L 563 408.86757156672485 L 564 408.54701324008454 L 565 408.22626567198654 L 566 407.9053381336413 L 567 407.5842399014612 L 568 407.2629802567927 L 569 406.9415684856477 L 570 406.6200138784355 L 571 406.2983257296939 L 572 405.9765133378208 L 573 405.6545860048054 L 574 405.3325530359593 L 575 405.01042373964725 L 576 404.6882074270187 L 577 404.365913411738 L 578 404.0435510097157 L 579 403.721129538839 L 580 403.3986583187025 L 581 403.0761466703387 L 582 402.7536039159489 L 583 402.4310393786332 L 584 402.1084623821217 L 585 401.78588225050436 L 586 401.4633083079619 L 587 401.140749878496 L 588 400.8182162856602 L 589 400.49571685228983 L 590 400.17326090023306 L 591 399.8508577500811 L 592 399.528516720899 L 593 399.2062471299562 L 594 398.88405829245715 L 595 398.5619595212722 L 596 398.2399601266682 L 597 397.91806941603977 L 598 397.59629669363983 L 599 397.2746512603108 L 600 396.9531424132159 L 601 396.63177944557043 L 602 396.31057164637286 L 603 395.98952830013656 L 604 395.6686586866215 L 605 395.3479720805656 L 606 395.0274777514175 L 607 394.7071849630675 L 608 394.38710297358074 L 609 394.06724103492894 L 610 393.7476083927235 L 611 393.42821428594783 L 612 393.1090679466906 L 613 392.79017859987863 L 614 392.4715554630105 L 615 392.15320774588986 L 616 391.8351446503595 L 617 391.51737537003504 L 618 391.1999090900395 L 619 390.8827549867377 L 620 390.5659222274709 L 621 390.2494199702919 L 622 389.9332573637004 L 623 389.6174435463785 L 624 389.30198764692653 L 625 388.98689878359914 L 626 388.67218606404185 L 627 388.35785858502777 L 628 388.0439254321946 L 629 387.730395679782 L 630 387.41727839036946 L 631 387.10458261461406 L 632 386.7923173909891 L 633 386.48049174552284 L 634 386.16911469153746 L 635 385.85819522938857 L 636 385.54774234620515 L 637 385.2377650156297 L 638 384.9282721975588 L 639 384.61927283788424 L 640 384.31077586823443 L 641 384.00279020571617 L 642 383.6953247526569 L 643 383.38838839634747 L 644 383.08199000878506 L 645 382.77613844641695 L 646 382.4708425498844 L 647 382.16611114376724 L 648 381.8619530363286 L 649 381.5583770192604 L 650 381.25539186742924 L 651 380.9530063386228 L 652 380.6512291732967 L 653 380.35006909432167 L 654 380.0495348067317 L 655 379.7496349974722 L 656 379.4503783351489 L 657 379.15177346977754 L 658 378.8538290325335 L 659 378.55655363550267 L 660 378.2599558714321 L 661 377.9640443134821 L 662 377.6688275149779 L 663 377.374314009163 L 664 377.08051230895205 L 665 376.7874309066849 L 666 376.4950782738814 L 667 376.2034628609961 L 668 375.91259309717435 L 669 375.6224773900084 L 670 375.33312412529455 L 671 375.0445416667907 L 672 374.75673835597456 L 673 374.46972251180256 L 674 374.1835024304695 L 675 373.89808638516854 L 676 373.61348262585216 L 677 373.32969937899384 L 678 373.04674484735006 L 679 372.76462720972324 L 680 372.48335462072544 L 681 372.20293521054253 L 682 371.9233770846993 L 683 371.6446883238251 L 684 371.3668769834203 L 685 371.0899510936233 L 686 370.81391865897865 L 687 370.53878765820565 L 688 370.2645660439674 L 689 369.99126174264154 L 690 369.7188826540904 L 691 369.44743665143324 L 692 369.17693158081846 L 693 368.90737526119676 L 694 368.6387754840952 L 695 368.371140013392 L 696 368.104476585092 L 697 367.8387929071033 L 698 367.57409665901423 L 699 367.3103954918714 L 700 367.04769702795875 L 701 366.7860088605769 L 702 366.525338553824 L 703 366.26569364237673 L 704 366.00708163127297 L 705 365.74950999569444 L 706 365.4929861807508 L 707 365.2375176012645 L 708 364.9831116415565 L 709 364.72977565523246 L 710 364.4775169649707 L 711 364.22634286231016 L 712 363.9762606074399 L 713 363.7272774289889 L 714 363.4794005238175 L 715 363.2326370568092 L 716 362.98699416066347 L 717 362.74247893568975 L 718 362.4990984496021 L 719 362.256859737315 L 720 362.01576980073986 L 721 361.7758356085827 L 722 361.53706409614296 L 723 361.2994621651126 L 724 361.0630366833768 L 725 360.82779448481574 L 726 360.5937423691064 L 727 360.36088710152677 L 728 360.1292354127597 L 729 359.8987939986987 L 730 359.66956952025424 L 731 359.4415686031612 L 732 359.21479783778767 L 733 358.98926377894384 L 734 358.7649729456931 L 735 358.54193182116336 L 736 358.3201468523597 L 737 358.0996244499779 L 738 357.88037098821957 L 739 357.6623928046071 L 740 357.44569619980143 L 741 357.2302874374191 L 742 357.0161727438518 L 743 356.80335830808605 L 744 356.59185028152433 L 745 356.38165477780746 L 746 356.1727778726378 L 747 355.9652256036036 L 748 355.75900397000436 L 749 355.55411893267774 L 750 355.350576413827 L 751 355.14838229684983 L 752 354.9475424261685 L 753 354.7480626070606 L 754 354.5499486054916 L 755 354.35320614794784 L 756 354.1578409212714 L 757 353.96385857249516 L 758 353.77126470868023 L 759 353.5800648967534 L 760 353.3902646633464 L 761 353.20186949463607 L 762 353.014884836186 L 763 352.8293160927888 L 764 352.6451686283103 L 765 352.4624477655338 L 766 352.2811587860072 L 767 352.10130692988946 L 768 351.9228973957996 L 769 351.74593534066634 L 770 351.57042587957886 L 771 351.39637408563925 L 772 351.2237849898157 L 773 351.0526635807971 L 774 350.88301480484876 L 775 350.7148435656696 L 776 350.54815472425037 L 777 350.3829530987329 L 778 350.2192434642714 L 779 350.0570305528937 L 780 349.896319053365 L 781 349.7371136110523 L 782 349.5794188277897 L 783 349.423239261746 L 784 349.2685794272925 L 785 349.1154437948726 L 786 348.9638367908728 L 787 348.8137627974943 L 788 348.665226152627 L 789 348.5182311497233 L 790 348.3727820376749 L 791 348.22888302068907 L 792 348.08653825816793 L 793 347.9457518645876 L 794 347.80652790937967 L 795 347.66887041681343 L 796 347.5327833658796 L 797 347.3982706901751 L 798 347.26533627778974 L 799 347.13398397119346 L 800 347.0042175671255 L 801 346.8760408164846 L 802 346.74945742422045 L 803 346.6244710492268 L 804 346.5010853042357 L 805 346.3793037557127 L 806 346.2591299237543 L 807 346.14056728198574 L 808 346.02361925746106 L 809 345.90828923056347 L 810 345.7945805349082 L 811 345.68249645724575 L 812 345.5720402373671 L 813 345.46321506800996 L 814 345.3560240947665 L 815 345.2504704159924 L 816 345.1465570827175 L 817 345.0442870985572 L 818 344.9436634196262 L 819 344.84468895445235 L 820 344.7473665638933 L 821 344.65169906105336 L 822 344.55768921120216 L 823 344.46533973169505 L 824 344.3746532918944 L 825 344.28563251309214 L 826 344.1982799684345 L 827 344.11259818284736 L 828 344.0285896329632 L 829 343.9462567470496 L 830 343.8656019049393 L 831 343.7866274379609 L 832 343.70933562887177 L 833 343.6337287117923 L 834 343.55980887214076 L 835 343.48757824657065 L 836 343.4170389229086 L 837 343.3481929400942 L 838 343.28104228812094 L 839 343.21558890797894 L 840 343.1518346915985 L 841 343.0897814817956 L 842 343.0294310722187 L 843 342.97078520729673 L 844 342.9138455821888 L 845 342.8586138427351 L 846 342.8050915854094 L 847 342.75328035727284 L 848 342.7031816559293 L 849 342.65479692948213 L 850 342.60812757649205 L 851 342.563174945937 L 852 342.5199403371731 L 853 342.47842499989696 L 854 342.4386301341096 L 855 342.40055689008193 L 856 342.3642063683212 L 857 342.32957961953963 L 858 342.29667764462346 L 859 342.26550139460454 L 860 342.23605177063257 L 861 342.20832962394906 L 862 342.1823357558629 L 863 342.15807091772695 L 864 342.1355358109165 L 865 342.114731086809 L 866 342.09565734676505 L 867 342.07831514211136 L 868 342.0627049741243 L 869 342.04882729401595 L 870 342.03668250292077 L 871 342.026270951884 L 872 342.0175929418515 L 873 342.01064872366135 L 874 342.0054384980361 L 875 342.0019624155774 L 876 342.0002205767614 L 877 342.000213031936 L 878 342.0019397813193 L 879 342.0054007749996 L 880 342.0105959129368 L 881 342.01752504496545 L 882 342.0261879707989 L 883 342.0365844400353 L 884 342.04871415216456 L 885 342.06257675657736 L 886 342.078171852575 L 887 342.0954989893811 L 888 342.11455766615467 L 889 342.1353473320046 L 890 342.1578673860055 L 891 342.1821171772149 L 892 342.20809600469255 L 893 342.23580311752033 L 894 342.2652377148239 L 895 342.2963989457961 L 896 342.3292859097213 L 897 342.36389765600165 L 898 342.40023318418434 L 899 342.4382914439908 L 900 342.4780713353468 L 901 342.5195717084143 L 902 342.5627913636247 L 903 342.60772905171365 L 904 342.6543834737571 L 905 342.7027532812085 L 906 342.7528370759385 L 907 342.8046334102745 L 908 342.8581407870433 L 909 342.91335765961367 L 910 342.97028243194177 L 911 343.02891345861656 L 912 343.08924904490794 L 913 343.1512874468154 L 914 343.21502687111854 L 915 343.2804654754289 L 916 343.34760136824326 L 917 343.4164326089982 L 918 343.4869572081263 L 919 343.5591731271135 L 920 343.6330782785584 L 921 343.708670526232 L 922 343.78594768514006 L 923 343.8649075215857 L 924 343.94554775323434 L 925 344.0278660491797 L 926 344.1118600300109 L 927 344.1975272678814 L 928 344.2848652865792 L 929 344.3738715615982 L 930 344.4645435202117 L 931 344.55687854154604 L 932 344.6508739566568 L 933 344.74652704860614 L 934 344.84383505254067 L 935 344.94279515577205 L 936 345.04340449785775 L 937 345.1456601706843 L 938 345.24955921855076 L 939 345.35509863825456 L 940 345.46227537917804 L 941 345.571086343377 L 942 345.68152838566965 L 943 345.7935983137283 L 944 345.9072928881708 L 945 346.02260882265495 L 946 346.13954278397284 L 947 346.25809139214766 L 948 346.3782512205311 L 949 346.50001879590275 L 950 346.6233905985699 L 951 346.74836306247 L 952 346.87493257527314 L 953 347.0030954784868 L 954 347.1328480675614 L 955 347.26418659199766 L 956 347.3971072554547 L 957 347.53160621585994 L 958 347.6676795855201 L 959 347.80532343123366 L 960 347.94453377440425 L 961 348.0853065911562 L 962 348.2276378124503 L 963 348.37152332420186 L 964 348.51695896739915 L 965 348.6639405382241 L 966 348.8124637881734 L 967 348.9625244241817 L 968 349.11411810874534 L 969 349.267240460048 L 970 349.42188705208713 L 971 349.5780534148021 L 972 349.7357350342032 L 973 349.89492735250224 L 974 350.05562576824434 L 975 350.2178256364408 L 976 350.3815222687034 L 977 350.54671093338004 L 978 350.7133868556913 L 979 350.8815452178686 L 980 351.0511811592936 L 981 351.22228977663826 L 982 351.39486612400697 L 983 351.5689052130794 L 984 351.7444020132545 L 985 351.92135145179634 L 986 352.09974841398025 L 987 352.27958774324094 L 988 352.4608642413215 L 989 352.64357266842364 L 990 352.8277077433592 L 991 353.0132641437027 L 992 353.2002365059452 L 993 353.3886194256495 L 994 353.5784074576061 L 995 353.76959511599085 L 996 353.9621768745232 L 997 354.1561471666264 L 998 354.3515003855878 L 999 354.5482308847216 L 1000 354.7463329775313 L 1001 354.945800937875 L 1002 355.14662900012974 L 1003 355.3488113593594 L 1004 355.55234217148154 L 1005 355.7572155534368 L 1006 355.9634255833589 L 1007 356.17096630074565 L 1008 356.37983170663125 L 1009 356.59001576375994 L 1010 356.80151239676024 L 1011 357.01431549232075 L 1012 357.2284188993666 L 1013 357.4438164292376 L 1014 357.6605018558667 L 1015 357.8784689159604 L 1016 358.09771130917954 L 1017 358.31822269832134 L 1018 358.53999670950276 L 1019 358.7630269323447 L 1020 358.9873069201571 L 1021 359.21283019012566 L 1022 359.43959022349884 L 1023 359.6675804657765 L 1024 359.8967943268993 L 1025 360.1272251814391 L 1026 360.3588663687907 L 1027 360.59171119336423 L 1028 360.82575292477856 L 1029 361.0609847980559 L 1030 361.29740001381776 L 1031 361.5349917384807 L 1032 361.77375310445456 L 1033 362.0136772103405 L 1034 362.2547571211309 L 1035 362.49698586840935 L 1036 362.74035645055255 L 1037 362.9848618329322 L 1038 363.2304949481188 L 1039 363.47724869608567 L 1040 363.72511594441426 L 1041 363.9740895285001 L 1042 364.2241622517604 L 1043 364.47532688584135 L 1044 364.7275761708279 L 1045 364.98090281545274 L 1046 365.23529949730784 L 1047 365.49075886305536 L 1048 365.7472735286409 L 1049 366.0048360795065 L 1050 366.26343907080496 L 1051 366.52307502761533 L 1052 366.78373644515864 L 1053 367.045415789015 L 1054 367.30810549534147 L 1055 367.5717979710904 L 1056 367.8364855942292 L 1057 368.1021607139605 L 1058 368.36881565094336 L 1059 368.6364426975151 L 1060 368.9050341179145 L 1061 369.1745821485048 L 1062 369.44507899799845 L 1063 369.7165168476825 L 1064 369.9888878516442 L 1065 370.262184136998 L 1066 370.5363978041131 L 1067 370.8115209268418 L 1068 371.08754555274857 L 1069 371.3644637033398 L 1070 371.6422673742949 L 1071 371.92094853569677 L 1072 372.200499132265 L 1073 372.48091108358767 L 1074 372.7621762843558 L 1075 373.0442866045969 L 1076 373.32723388991053 L 1077 373.6110099617036 L 1078 373.8956066174271 L 1079 374.18101563081296 L 1080 374.46722875211185 L 1081 374.7542377083318 L 1082 375.04203420347716 L 1083 375.3306099187884 L 1084 375.61995651298287 L 1085 375.9100656224954 L 1086 376.2009288617204 L 1087 376.49253782325417 L 1088 376.7848840781379 L 1089 377.07795917610133 L 1090 377.371754645807 L 1091 377.66626199509494 L 1092 377.96147271122857 L 1093 378.2573782611402 L 1094 378.5539700916782 L 1095 378.8512396298538 L 1096 379.1491782830894 L 1097 379.4477774394661 L 1098 379.7470284679737 L 1099 380.0469227187593 L 1100 380.34745152337774 L 1101 380.6486061950421 L 1102 380.9503780288748 L 1103 381.25275830215907 L 1104 381.5557382745913 L 1105 381.85930918853353 L 1106 382.16346226926674 L 1107 382.4681887252441 L 1108 382.7734797483456 L 1109 383.0793265141324 L 1110 383.38572018210186 L 1111 383.6926518959431 L 1112 384.0001127837931 L 1113 384.3080939584929 L 1114 384.616586517845 L 1115 384.92558154486983 L 1116 385.23507010806446 L 1117 385.54504326165994 L 1118 385.8554920458804 L 1119 386.16640748720187 L 1120 386.47778059861156 L 1121 386.7896023798679 L 1122 387.10186381776026 L 1123 387.41455588637 L 1124 387.72766954733083 L 1125 388.0411957500906 L 1126 388.35512543217243 L 1127 388.66944951943697 L 1128 388.98415892634455 L 1129 389.29924455621784 L 1130 389.61469730150475 L 1131 389.9305080440418 L 1132 390.24666765531754 L 1133 390.56316699673647 L 1134 390.8799969198832 L 1135 391.1971482667869 L 1136 391.51461187018583 L 1137 391.8323785537927 L 1138 392.15043913255954 L 1139 392.4687844129435 L 1140 392.78740519317205 L 1141 393.1062922635099 L 1142 393.42543640652406 L 1143 393.7448283973513 L 1144 394.0644590039641 L 1145 394.3843189874379 L 1146 394.7043991022178 L 1147 395.0246900963862 L 1148 395.34518271192997 L 1149 395.66586768500815 L 1150 395.98673574621944 L 1151 396.3077776208708 L 1152 396.62898402924475 L 1153 396.9503456868682 L 1154 397.27185330478034 L 1155 397.5934975898016 L 1156 397.9152692448019 L 1157 398.23715896896965 L 1158 398.55915745808034 L 1159 398.8812554047658 L 1160 399.20344349878275 L 1161 399.5257124272825 L 1162 399.84805287507953 L 1163 400.17045552492146 L 1164 400.49291105775757 L 1165 400.81541015300877 L 1166 401.13794348883675 L 1167 401.46050174241344 L 1168 401.78307559019055 L 1169 402.105655708169 L 1170 402.42823277216866 L 1171 402.7507974580974 L 1172 403.07334044222097 L 1173 403.39585240143253 L 1174 403.7183240135219 L 1175 404.0407459574452 L 1176 404.3631089135941 L 1177 404.68540356406544 L 1178 405.0076205929304 L 1179 405.3297506865037 L 1180 405.65178453361307 L 1181 405.97371282586823 L 1182 406.2955262579299 L 1183 406.61721552777885 L 1184 406.93877133698476 L 1185 407.26018439097504 L 1186 407.58144539930333 L 1187 407.90254507591834 L 1188 408.22347413943186 L 1189 408.5442233133874 L 1190 408.8647833265281 L 1191 409.1851449130648 L 1192 409.5052988129439 L 1193 409.82523577211504 L 1194 410.1449465427984 L 1195 410.46442188375215 L 1196 410.7836525605397 L 1197 411.10262934579634 L 1198 411.4213430194962 L 1199 411.7397843692185 L 1200 412.05794419041416 L 1201 412.37581328667164 L 1202 412.6933824699826 L 1203 413.01064256100807 L 1204 413.32758438934303 L 1205 413.6441987937821 L 1206 413.9604766225838 L 1207 414.2764087337359 L 1208 414.5919859952184 L 1209 414.9071992852689 L 1210 415.2220394926453 L 1211 415.53649751688937 L 1212 415.85056426859006 L 1213 416.164230669646 L 1214 416.47748765352793 L 1215 416.7903261655409 L 1216 417.1027371630857 L 1217 417.4147116159205 L 1218 417.726240506422 L 1219 418.0373148298456 L 1220 418.34792559458623 L 1221 418.6580638224376 L 1222 418.9677205488525 L 1223 419.2768868232014 L 1224 419.5855537090311 L 1225 419.89371228432344 L 1226 420.20135364175303 L 1227 420.5084688889444 L 1228 420.81504914872954 L 1229 421.12108555940415 L 1230 421.42656927498393 L 1231 421.7314914654602 L 1232 422.03584331705514 L 1233 422.33961603247667 L 1234 422.6428008311726 L 1235 422.9453889495844 L 1236 423.24737164140083 L 1237 423.54874017781015 L 1238 423.8494858477531 L 1239 424.1495999581741 L 1240 424.4490738342732 L 1241 424.74789881975596 L 1242 425.0460662770845 L 1243 425.3435675877265 L 1244 425.6403941524049 L 1245 425.9365373913459 L 1246 426.23198874452754 L 1247 426.52673967192646 L 1248 426.8207816537655 L 1249 427.1141061907592 L 1250 427.4067048043602 L 1251 427.69856903700355 L 1252 427.9896904523521 L 1253 428.28006063553937 L 1254 428.5696711934135 L 1255 428.85851375477955 L 1256 429.14657997064154 L 1257 429.4338615144437 L 1258 429.7203500823113 L 1259 430.00603739329046 L 1260 430.2909151895878 L 1261 430.5749752368088 L 1262 430.85820932419614 L 1263 431.1406092648667 L 1264 431.4221668960486 L 1265 431.70287407931664 L 1266 431.98272270082816 L 1267 432.2617046715568 L 1268 432.53981192752724 L 1269 432.8170364300473 L 1270 433.09337016594134 L 1271 433.3688051477808 L 1272 433.6433334141159 L 1273 433.91694702970545 L 1274 434.18963808574625 L 1275 434.4613987001016 L 1276 434.73222101752935 L 1277 435.0020972099087 L 1278 435.2710194764667 L 1279 435.53898004400355 L 1280 435.8059711671175 L 1281 436.07198512842837 L 1282 436.3370142388011 L 1283 436.6010508375675 L 1284 436.8640872927483 L 1285 437.1261160012729 L 1286 437.3871293892001 L 1287 437.64711991193616 L 1288 437.9060800544535 L 1289 438.1640023315077 L 1290 438.4208792878536 L 1291 438.67670349846134 L 1292 438.9314675687305 L 1293 439.18516413470405 L 1294 439.4377858632813 L 1295 439.6893254524295 L 1296 439.9397756313954 L 1297 440.18912916091494 L 1298 440.437378833423 L 1299 440.68451747326117 L 1300 440.9305379368855 L 1301 441.1754331130731 L 1302 441.41919592312735 L 1303 441.66181932108276 L 1304 441.90329629390845 L 1305 442.1436198617112 L 1306 442.38278307793666 L 1307 442.6207790295707 L 1308 442.85760083733885 L 1309 443.09324165590533 L 1310 443.3276946740708 L 1311 443.5609531149694 L 1312 443.79301023626437 L 1313 444.0238593303433 L 1314 444.2534937245117 L 1315 444.48190678118607 L 1316 444.70909189808543 L 1317 444.9350425084227 L 1318 445.1597520810941 L 1319 445.3832141208681 L 1320 445.605422168573 L 1321 445.8263698012839 L 1322 446.046050632508 L 1323 446.2644583123697 L 1324 446.4815865277935 L 1325 446.6974290026873 L 1326 446.91197949812266 L 1327 447.12523181251646 L 1328 447.33717978180914 L 1329 447.5478172796435 L 1330 447.7571382175412 L 1331 447.9651365450793 L 1332 448.17180625006495 L 1333 448.37714135870897 L 1334 448.58113593579884 L 1335 448.7837840848701 L 1336 448.98507994837667 L 1337 449.1850177078605 L 1338 449.3835915841193 L 1339 449.58079583737407 L 1340 449.7766247674346 L 1341 449.97107271386454 L 1342 450.16413405614475 L 1343 450.355803213836 L 1344 450.54607464674007 L 1345 450.73494285506 L 1346 450.9224023795592 L 1347 451.10844780171885 L 1348 451.2930737438949 L 1349 451.4762748694735 L 1350 451.65804588302484 L 1351 451.8383815304567 L 1352 452.0172765991661 L 1353 452.19472591819 L 1354 452.3707243583547 L 1355 452.5452668324244 L 1356 452.7183482952475 L 1357 452.88996374390354 L 1358 453.0601082178468 L 1359 453.22877679905025 L 1360 453.39596461214745 L 1361 453.5616668245738 L 1362 453.7258786467057 L 1363 453.8885953319995 L 1364 454.04981217712833 L 1365 454.20952452211844 L 1366 454.3677277504834 L 1367 454.524417289358 L 1368 454.6795886096301 L 1369 454.8332372260718 L 1370 454.9853586974688 L 1371 455.1359486267492 L 1372 455.28500266111007 L 1373 455.4325164921437 L 1374 455.5784858559618 L 1375 455.72290653331913 L 1376 455.86577434973503 L 1377 456.00708517561446 L 1378 456.1468349263671 L 1379 456.2850195625256 L 1380 456.42163508986215 L 1381 456.5566775595041 L 1382 456.6901430680481 L 1383 456.8220277576728 L 1384 456.9523278162504 L 1385 457.0810394774569 L 1386 457.208159020881 L 1387 457.3336827721315 L 1388 457.4576071029436 L 1389 457.57992843128375 L 1390 457.7006432214532 L 1391 457.81974798419026 L 1392 457.9372392767709 L 1393 458.0531137031088 L 1394 458.16736791385284 L 1395 458.27999860648436 L 1396 458.3910025254125 L 1397 458.5003764620683 L 1398 458.6081172549974 L 1399 458.7142217899517 L 1400 458.8186869999788 L 1401 458.92150986551127 L 1402 459.02268741445346 L 1403 459.1222167222678 L 1404 459.220094912059 L 1405 459.3163191546573 L 1406 459.4108866687005 L 1407 459.503794720714 L 1408 459.59504062518994 L 1409 459.6846217446649 L 1410 459.7725354897962 L 1411 459.8587793194364 L 1412 459.943350740707 L 1413 460.0262473090707 L 1414 460.10746662840154 L 1415 460.1870063510547 L 1416 460.2648641779341 L 1417 460.34103785855854 L 1418 460.4155251911275 L 1419 460.4883240225841 L 1420 460.5594322486777 L 1421 460.62884781402454 L 1422 460.6965687121674 L 1423 460.7625929856332 L 1424 460.8269187259899 L 1425 460.8895440739017 L 1426 460.95046721918237 L 1427 461.0096864008482 L 1428 461.06719990716823 L 1429 461.12300607571433 L 1430 461.1771032934087 L 1431 461.22948999657115 L 1432 461.28016467096353 L 1433 461.32912585183414 L 1434 461.37637212395975 L 1435 461.4219021216865 L 1436 461.46571452896967 L 1437 461.50780807941123 L 1438 461.5481815562969 L 1439 461.58683379263107 L 1440 461.62376367117065 L 1441 461.65897012445726 L 1442 461.6924521348481 L 1443 461.7242087345455 L 1444 461.75423900562475 L 1445 461.7825420800607 L 1446 461.80911713975274 L 1447 461.8339634165487 L 1448 461.8570801922667 L 1449 461.8784667987163 L 1450 461.8981226177175 L 1451 461.9160470811186 L 1452 461.93223967081303 L 1453 461.94669991875384 L 1454 461.9594274069674 L 1455 461.97042176756565 L 1456 461.97968268275656 L 1457 461.98720988485326 L 1458 461.993003156282 L 1459 461.9970623295881 L 1460 461.99938728744127 L 1461 461.9999779626385 L 1462 461.9988343381064 L 1463 461.9959564469014 L 1464 461.9913443722089 L 1465 461.9849982473411 L 1466 461.97691825573264 L 1467 461.96710463093575 L 1468 461.9555576566134 L 1469 461.9422776665308 L 1470 461.9272650445463 L 1471 461.9105202245998 L 1472 461.89204369070035 L 1473 461.8718359769123 L 1474 461.84989766733975 L 1475 461.8262293961097 L 1476 461.8008318473536 L 1477 461.7737057551879 L 1478 461.7448519036923 L 1479 461.71427112688764 L 1480 461.6819643087114 L 1481 461.6479323829924 L 1482 461.6121763334237 L 1483 461.57469719353406 L 1484 461.5354960466583 L 1485 461.4945740259057 L 1486 461.4519323141277 L 1487 461.40757214388304 L 1488 461.3614947974029 L 1489 461.31370160655314 L 1490 461.2641939527963 L 1491 461.21297326715137 L 1492 461.16004103015257 L 1493 461.10539877180656 L 1494 461.04904807154816 L 1495 460.9909905581947 L 1496 460.93122790989895 L 1497 460.8697618541006 L 1498 460.8065941674764 L 1499 460.74172667588874 L 1500 460.6751612543328 L 1501 460.60689982688257 L 1502 460.53694436663494 L 1503 460.46529689565295 L 1504 460.39195948490726 L 1505 460.31693425421605 L 1506 460.2402233721842 L 1507 460.1618290561401 L 1508 460.081753572072 L 1509 459.99999923456227 L 1510 459.9165684067205 L 1511 459.8314635001153 L 1512 459.7446869747045 L 1513 459.65624133876406 L 1514 459.5661291488157 L 1515 459.47435300955283 L 1516 459.38091557376526 L 1517 459.28581954226263 L 1518 459.1890676637963 L 1519 459.09066273498007 L 1520 458.9906076002088 L 1521 458.88890515157686 L 1522 458.78555832879414 L 1523 458.6805701191012 L 1524 458.57394355718293 L 1525 458.46568172508063 L 1526 458.35578775210325 L 1527 458.2442648147369 L 1528 458.1311161365525 L 1529 458.01634498811353 L 1530 457.8999546868806 L 1531 457.7819485971162 L 1532 457.6623301297869 L 1533 457.5411027424653 L 1534 457.41826993922984 L 1535 457.29383527056336 L 1536 457.1678023332508 L 1537 457.0401747702749 L 1538 456.9109562707112 L 1539 456.78015056962124" stroke-linecap="round" stroke-linejoin="round" stroke-miterlimit="10" stroke-width="13"/></g></svg>